<!-- Generator: Adobe Illustrator 20.1.0, SVG Export Plug-In  -->
<svg version="1.1"
	 xmlns="http://www.w3.org/2000/svg" xmlns:xlink="http://www.w3.org/1999/xlink" xmlns:a="http://ns.adobe.com/AdobeSVGViewerExtensions/3.0/"
	 x="0px" y="0px" width="35.001px" height="35px" viewBox="0 0 35.001 35" style="enable-background:new 0 0 35.001 35;"
	 xml:space="preserve">
<style type="text/css">
	.st0{fill:#FFFFFF;}
	.st1{fill:#90C4E9;}
</style>
<defs>
</defs>
<g>
	<g>
		<path class="st0" d="M17.5,35C7.85,35,0,27.15,0,17.5C0,7.85,7.85,0,17.5,0s17.5,7.85,17.5,17.5C35.001,27.15,27.15,35,17.5,35z
			 M17.5,2.307C9.123,2.307,2.307,9.122,2.307,17.5S9.123,32.693,17.5,32.693S32.694,25.877,32.694,17.5S25.878,2.307,17.5,2.307z"
			/>
	</g>
	<g>
		<path class="st0" d="M17.898,21.533c-3.816,0-6.92-3.104-6.92-6.92s3.104-6.92,6.92-6.92s6.92,3.104,6.92,6.92
			S21.714,21.533,17.898,21.533z M17.898,9.999c-2.544,0-4.613,2.07-4.613,4.613s2.07,4.613,4.613,4.613s4.613-2.07,4.613-4.613
			S20.442,9.999,17.898,9.999z"/>
	</g>
	<path class="st0" d="M17.898,19.226c-6.272,0-11.675,3.738-14.133,9.097c0.527,0.668,1.102,1.293,1.719,1.877
		c1.87-5.051,6.722-8.668,12.415-8.668c5.477,0,10.189,3.341,12.203,8.092c0.586-0.609,1.124-1.261,1.618-1.949
		C29.133,22.666,23.915,19.226,17.898,19.226z"/>
	<path class="st1" d="M24.034,11.424c-1.155-2.214-3.47-3.732-6.136-3.732c-2.756,0-5.134,1.623-6.246,3.96
		c0.54,0.613,1.17,1.141,1.87,1.569c0.594-1.861,2.32-3.222,4.376-3.222c1.997,0,3.686,1.283,4.326,3.063
		C22.907,12.609,23.517,12.057,24.034,11.424z"/>
	<path class="st1" d="M17.5,32.693c-8.378,0-15.194-6.816-15.194-15.194S9.123,2.307,17.5,2.307V0C7.85,0,0,7.85,0,17.5
		C0,27.15,7.85,35,17.5,35V32.693z"/>
	<g>
		<path class="st0" d="M17.898,26.977c-1.033,0-1.874-0.841-1.874-1.874s0.841-1.874,1.874-1.874s1.874,0.841,1.874,1.874
			S18.932,26.977,17.898,26.977z M17.898,24.382c-0.398,0-0.721,0.323-0.721,0.721s0.323,0.721,0.721,0.721s0.721-0.323,0.721-0.721
			S18.296,24.382,17.898,24.382z"/>
	</g>
	<g>
		<path class="st0" d="M17.898,32.074c-1.033,0-1.874-0.841-1.874-1.874s0.841-1.874,1.874-1.874s1.874,0.841,1.874,1.874
			S18.932,32.074,17.898,32.074z M17.898,29.479c-0.398,0-0.721,0.323-0.721,0.721c0,0.398,0.323,0.721,0.721,0.721
			s0.721-0.323,0.721-0.721C18.619,29.803,18.296,29.479,17.898,29.479z"/>
	</g>
	<path class="st1" d="M18.619,25.102c0,0.398-0.323,0.721-0.721,0.721v1.153c1.033,0,1.874-0.841,1.874-1.874
		s-0.841-1.874-1.874-1.874v1.153C18.296,24.382,18.619,24.705,18.619,25.102z"/>
	<path class="st1" d="M18.619,30.2c0,0.398-0.323,0.721-0.721,0.721v1.153c1.033,0,1.874-0.841,1.874-1.874
		s-0.841-1.874-1.874-1.874v1.153C18.296,29.479,18.619,29.803,18.619,30.2z"/>
</g>
</svg>