<!-- Generator: Adobe Illustrator 20.1.0, SVG Export Plug-In  -->
<svg version="1.1"
	 xmlns="http://www.w3.org/2000/svg" xmlns:xlink="http://www.w3.org/1999/xlink" xmlns:a="http://ns.adobe.com/AdobeSVGViewerExtensions/3.0/"
	 x="0px" y="0px" width="30.347px" height="30.346px" viewBox="0 0 30.347 30.346"
	 style="enable-background:new 0 0 30.347 30.346;" xml:space="preserve">
<style type="text/css">
	.st0{fill:#FFFFFF;}
	.st1{fill:#90C4E9;}
</style>
<defs>
</defs>
<g>
	<g>
		<path class="st0" d="M15.173,30.346C6.807,30.346,0,23.54,0,15.173C0,6.807,6.807,0,15.173,0s15.173,6.807,15.173,15.173
			C30.347,23.54,23.54,30.346,15.173,30.346z M15.173,2C7.91,2,2,7.909,2,15.173s5.91,13.173,13.173,13.173
			s13.173-5.91,13.173-13.173S22.437,2,15.173,2z"/>
	</g>
	<path class="st0" d="M16.405,11.376c0-0.669,0.069-1.028,1.099-1.028h1.376V7.857h-2.202c-2.645,0-3.577,1.246-3.577,3.341v1.618
		h-1.65v2.491h1.65v7.45h3.301v-7.45h2.204l0.292-2.491h-2.496L16.405,11.376z"/>
	<path class="st1" d="M2,15.173c0-5.066,2.879-9.466,7.082-11.669C8.46,3.067,7.802,2.681,7.116,2.339C2.849,5.028,0,9.768,0,15.173
		c0,5.989,3.496,11.163,8.547,13.629c0.644-0.413,1.252-0.873,1.824-1.375C5.478,25.502,2,20.741,2,15.173z"/>
	<path class="st1" d="M13.068,11.198v1.618h-1.65v2.491h1.65v7.45h0.904c1.019-2.045,1.607-4.342,1.607-6.782
		c0-2.583-0.648-5.012-1.781-7.144C13.289,9.4,13.068,10.199,13.068,11.198z"/>
</g>
</svg>