<!-- Generator: Adobe Illustrator 20.1.0, SVG Export Plug-In  -->
<svg version="1.1"
	 xmlns="http://www.w3.org/2000/svg" xmlns:xlink="http://www.w3.org/1999/xlink" xmlns:a="http://ns.adobe.com/AdobeSVGViewerExtensions/3.0/"
	 x="0px" y="0px" width="35.001px" height="35px" viewBox="0 0 35.001 35" style="enable-background:new 0 0 35.001 35;"
	 xml:space="preserve">
<style type="text/css">
	.st0{fill:#FFFFFF;}
	.st1{fill:#90C4E9;}
</style>
<defs>
</defs>
<g>
	<path class="st0" d="M17.5,35C7.85,35,0,27.15,0,17.5C0,7.851,7.85,0,17.5,0s17.5,7.85,17.5,17.5C35.001,27.15,27.15,35,17.5,35z
		 M17.5,2.307C9.123,2.307,2.307,9.122,2.307,17.5S9.123,32.693,17.5,32.693S32.694,25.877,32.694,17.5S25.878,2.307,17.5,2.307z"/>
</g>
<g>
	<path class="st0" d="M17.753,22.465c-2.735,0-4.96-2.225-4.96-4.96s2.225-4.96,4.96-4.96c2.735,0,4.96,2.225,4.96,4.96
		S20.489,22.465,17.753,22.465z M17.753,13.698c-2.099,0-3.806,1.708-3.806,3.807s1.708,3.807,3.806,3.807s3.807-1.708,3.807-3.807
		S19.852,13.698,17.753,13.698z"/>
</g>
<g>
	<path class="st0" d="M28.874,15.692l-1.946,1.124v1.403l1.945,1.123l-0.137,0.619c-0.304,1.368-0.863,2.663-1.665,3.85
		l-0.345,0.511l-2.036-0.546l-0.817,0.817l0.539,2.014l-0.524,0.343c-1.22,0.797-2.571,1.344-4.014,1.623l-0.605,0.117l-0.987-1.709
		H17.2l-0.987,1.71l-0.605-0.117c-1.442-0.277-2.805-0.833-4.05-1.655l-0.52-0.344l0.532-1.984l-0.817-0.817l-2.007,0.538
		l-0.345-0.512c-0.766-1.136-1.312-2.387-1.622-3.719l-0.146-0.625l2.148-1.24v-1.403l-2.148-1.241l0.146-0.625
		c0.319-1.367,0.896-2.659,1.715-3.841l0.347-0.5l2.078,0.556l0.817-0.817l-0.539-2.01l0.537-0.34
		c1.185-0.752,2.489-1.269,3.876-1.537l0.605-0.117L17.2,8.053h1.081l0.987-1.71l0.604,0.115c1.414,0.271,2.758,0.816,3.995,1.619
		l0.527,0.342l-0.522,1.95l0.817,0.817l1.998-0.536l0.346,0.504c0.816,1.189,1.389,2.507,1.703,3.919L28.874,15.692z M25.197,19.218
		v-3.401l1.693-0.978c-0.225-0.772-0.546-1.507-0.957-2.196l-1.762,0.472l-2.229-2.229l0.45-1.681
		c-0.717-0.404-1.47-0.71-2.252-0.913l-0.861,1.491h-3.079l-0.859-1.488c-0.748,0.195-1.465,0.478-2.141,0.846l0.462,1.726
		l-2.229,2.229l-1.847-0.495c-0.41,0.676-0.731,1.389-0.959,2.13l1.882,1.086v3.401l-1.883,1.087
		c0.215,0.703,0.51,1.377,0.882,2.014l1.76-0.471l2.229,2.229l-0.462,1.724c0.729,0.417,1.5,0.733,2.303,0.942l0.86-1.491h3.079
		l0.859,1.488c0.797-0.207,1.558-0.514,2.271-0.916l-0.468-1.749l2.229-2.229l1.79,0.48c0.399-0.677,0.71-1.392,0.927-2.133
		L25.197,19.218z"/>
</g>
<path class="st1" d="M17.54,26.982c-0.358-0.555-0.679-1.134-0.973-1.73h-0.365l-0.86,1.491c-0.803-0.209-1.574-0.525-2.303-0.942
	l0.462-1.724l-2.229-2.229l-1.76,0.471c-0.372-0.636-0.667-1.31-0.882-2.014l1.883-1.087v-3.401L8.63,14.731
	c0.228-0.741,0.549-1.454,0.959-2.13l1.847,0.495l2.229-2.229l-0.462-1.726c0.676-0.368,1.392-0.651,2.141-0.846l0.859,1.488h0.365
	c0.294-0.596,0.616-1.175,0.973-1.73H17.2l-0.986-1.708l-0.605,0.117c-1.387,0.269-2.69,0.786-3.876,1.537l-0.537,0.34l0.539,2.01
	l-0.817,0.817L8.841,10.61l-0.347,0.5c-0.819,1.182-1.396,2.474-1.715,3.841l-0.146,0.625l2.148,1.241v1.403l-2.148,1.24
	l0.146,0.625c0.311,1.331,0.857,2.582,1.622,3.719l0.345,0.512l2.007-0.538l0.817,0.817l-0.532,1.984l0.52,0.344
	c1.245,0.822,2.608,1.378,4.05,1.655l0.605,0.117l0.987-1.71H17.54z"/>
<path class="st1" d="M22.216,31.935c-1.486,0.487-3.069,0.758-4.715,0.758c-8.378,0-15.194-6.816-15.194-15.194
	S9.123,2.307,17.5,2.307c1.647,0,3.229,0.272,4.715,0.758c0.747-0.573,1.528-1.104,2.359-1.558C22.409,0.545,20.019,0,17.5,0
	C7.851,0,0,7.85,0,17.5C0,27.149,7.851,35,17.5,35c2.519,0,4.909-0.545,7.075-1.507C23.743,33.039,22.962,32.508,22.216,31.935z"/>
<path class="st1" d="M17.76,12.545v1.153c2.096,0.004,3.8,1.71,3.8,3.806s-1.705,3.803-3.8,3.806v1.153
	c2.732-0.004,4.954-2.227,4.954-4.96S20.492,12.549,17.76,12.545z"/>
</svg>