<!-- Generator: Adobe Illustrator 20.1.0, SVG Export Plug-In  -->
<svg version="1.1"
	 xmlns="http://www.w3.org/2000/svg" xmlns:xlink="http://www.w3.org/1999/xlink" xmlns:a="http://ns.adobe.com/AdobeSVGViewerExtensions/3.0/"
	 x="0px" y="0px" width="30.347px" height="30.346px" viewBox="0 0 30.347 30.346"
	 style="enable-background:new 0 0 30.347 30.346;" xml:space="preserve">
<style type="text/css">
	.st0{fill:#FFFFFF;}
	.st1{fill:#90C4E9;}
	.st2{fill:none;}
</style>
<defs>
</defs>
<g>
	<g>
		<path class="st0" d="M15.173,30.346C6.807,30.346,0,23.54,0,15.173C0,6.807,6.807,0,15.173,0s15.173,6.807,15.173,15.173
			C30.347,23.54,23.54,30.346,15.173,30.346z M15.173,2C7.91,2,2,7.909,2,15.173s5.91,13.173,13.173,13.173
			s13.173-5.91,13.173-13.173S22.437,2,15.173,2z"/>
	</g>
	<path class="st0" d="M17.284,12.817c0.535,0,1.004-0.466,1.004-0.466v0.4h0.803V8.956h-0.803v2.929c0,0-0.268,0.333-0.536,0.333
		s-0.268-0.199-0.268-0.199V8.956H16.68v3.329C16.68,12.285,16.747,12.817,17.284,12.817"/>
	<path class="st1" d="M14.872,8.956h-0.267c-0.591,0-1.071,0.477-1.071,1.065v1.731c0,0.589,0.48,1.065,1.071,1.065h0.267
		c0.593,0,1.072-0.476,1.072-1.065v-1.731C15.944,9.433,15.465,8.956,14.872,8.956z M15.14,11.819c0,0.22-0.18,0.399-0.401,0.399
		c-0.222,0-0.403-0.179-0.403-0.399V9.955c0-0.22,0.181-0.399,0.403-0.399c0.222,0,0.401,0.179,0.401,0.399V11.819z"/>
	<polygon class="st1" points="11.457,12.751 12.395,12.751 12.395,10.687 13.466,7.758 12.596,7.758 11.927,9.689 11.257,7.758 
		10.319,7.758 11.457,10.687 	"/>
	<path class="st0" d="M16.747,17.16c-0.173,0-0.309,0.103-0.401,0.203v2.684c0.084,0.091,0.211,0.179,0.401,0.179
		c0.402,0,0.402-0.447,0.402-0.447v-2.172C17.149,17.607,17.083,17.16,16.747,17.16z"/>
	<g>
		<path class="st1" d="M22.105,15.563c0-1.057-0.9-1.916-2.009-1.916c0,0-2.457-0.127-4.923-0.127c-2.455,0-4.921,0.127-4.921,0.127
			c-1.109,0-2.01,0.859-2.01,1.916c0,0-0.201,1.242-0.201,2.491c0,1.242,0.201,2.491,0.201,2.491c0,1.059,0.9,1.916,2.01,1.916
			c0,0,2.419,0.128,4.921,0.128c2.418,0,4.923-0.128,4.923-0.128c1.109,0,2.009-0.857,2.009-1.916c0,0,0.2-1.257,0.2-2.491
			C22.305,16.797,22.105,15.563,22.105,15.563z M12.262,15.819h-1.005v5.045h-0.938v-5.045H9.315v-0.831h2.947V15.819z
			 M14.805,20.864h-0.803v-0.382c0,0-0.469,0.447-1.005,0.447c-0.535,0-0.602-0.512-0.602-0.512v-3.96h0.803v3.704
			c0,0,0,0.192,0.268,0.192c0.268,0,0.536-0.319,0.536-0.319v-3.577h0.803V20.864z M17.953,19.906c0,0,0,1.022-0.736,1.022
			c-0.452,0-0.726-0.239-0.871-0.425v0.361h-0.871v-5.875h0.871v1.906c0.133-0.141,0.461-0.437,0.871-0.437
			c0.535,0,0.736,0.447,0.736,1.022V19.906z M21.1,17.544v1.278h-1.674v0.957c0,0,0,0.447,0.402,0.447
			c0.402,0,0.402-0.447,0.402-0.447v-0.447h0.87v0.703c0,0-0.134,0.894-1.205,0.894c-1.072,0-1.273-0.894-1.273-0.894v-2.491
			c0,0,0-1.086,1.273-1.086C21.167,16.457,21.1,17.544,21.1,17.544z"/>
		<path class="st1" d="M19.828,17.16c-0.402,0-0.402,0.447-0.402,0.447v0.575h0.804v-0.575C20.23,17.607,20.23,17.16,19.828,17.16z"
			/>
	</g>
	<path class="st2" d="M19.895,16.426c-1.273,0-1.273,1.086-1.273,1.086v2.491c0,0,0.201,0.894,1.273,0.894
		c1.071,0,1.205-0.894,1.205-0.894V19.3h-0.87v0.447c0,0,0,0.447-0.402,0.447s-0.402-0.447-0.402-0.447V18.79H21.1v-1.278
		C21.1,17.512,21.167,16.426,19.895,16.426z M20.23,18.15h-0.804v-0.575c0,0,0-0.447,0.402-0.447s0.402,0.447,0.402,0.447V18.15z"/>
	<path class="st2" d="M17.217,20.897c0.736,0,0.736-1.022,0.736-1.022v-2.427c0-0.451-0.13-0.814-0.441-0.954
		c-0.095,1.478-0.401,2.895-0.889,4.227C16.772,20.82,16.964,20.897,17.217,20.897z"/>
	<path class="st0" d="M22.105,15.532c0-1.057-0.9-1.916-2.009-1.916c0,0-1.157-0.06-2.68-0.097c0.086,0.652,0.145,1.312,0.145,1.988
		c0,0.333-0.029,0.659-0.05,0.987c0.311,0.14,0.441,0.503,0.441,0.954v2.427c0,0,0,1.022-0.736,1.022
		c-0.253,0-0.445-0.077-0.595-0.176c-0.231,0.63-0.494,1.245-0.803,1.833c2.198-0.019,4.277-0.125,4.277-0.125
		c1.109,0,2.009-0.857,2.009-1.916c0,0,0.2-1.257,0.2-2.491C22.305,16.765,22.105,15.532,22.105,15.532z M21.1,17.512v1.278h-1.674
		v0.957c0,0,0,0.447,0.402,0.447s0.402-0.447,0.402-0.447V19.3h0.87v0.703c0,0-0.134,0.894-1.205,0.894
		c-1.072,0-1.273-0.894-1.273-0.894v-2.491c0,0,0-1.086,1.273-1.086C21.167,16.426,21.1,17.512,21.1,17.512z"/>
	<path class="st0" d="M19.828,17.129c-0.402,0-0.402,0.447-0.402,0.447v0.575h0.804v-0.575C20.23,17.576,20.23,17.129,19.828,17.129
		z"/>
	<path class="st1" d="M17.149,17.607c0,0-0.066-0.447-0.402-0.447c-0.173,0-0.309,0.103-0.401,0.203v2.684
		c0.084,0.091,0.211,0.179,0.401,0.179c0.027,0,0.039-0.015,0.063-0.019c0.132-0.405,0.241-0.82,0.339-1.239V17.607z"/>
	<path class="st1" d="M16.68,10.483v1.802c0,0,0.067,0.532,0.603,0.532c0.007,0,0.013-0.004,0.02-0.004
		C17.158,12.011,16.946,11.235,16.68,10.483z"/>
	<path class="st1" d="M2,15.173C2,9.488,5.627,4.647,10.683,2.805c-0.709-0.462-1.456-0.87-2.241-1.21C3.448,4.081,0,9.226,0,15.173
		c0,6.223,3.768,11.577,9.14,13.915c0.766-0.38,1.494-0.821,2.179-1.32C5.931,26.116,2,21.096,2,15.173z"/>
</g>
</svg>