<!-- Generator: Adobe Illustrator 20.1.0, SVG Export Plug-In  -->
<svg version="1.1"
	 xmlns="http://www.w3.org/2000/svg" xmlns:xlink="http://www.w3.org/1999/xlink" xmlns:a="http://ns.adobe.com/AdobeSVGViewerExtensions/3.0/"
	 x="0px" y="0px" width="50.001px" height="50px" viewBox="0 0 50.001 50" style="enable-background:new 0 0 50.001 50;"
	 xml:space="preserve">
<style type="text/css">
	.st0{fill:#FFFFFF;}
	.st1{fill:#F5911E;}
</style>
<defs>
</defs>
<g>
	<g>
		<path class="st0" d="M25,50C11.215,50,0,38.785,0,25C0,11.215,11.215,0,25,0s25,11.215,25,25C50.001,38.785,38.786,50,25,50z
			 M25,3.295C13.032,3.295,3.295,13.032,3.295,25S13.032,46.705,25,46.705S46.705,36.968,46.705,25S36.968,3.295,25,3.295z"/>
	</g>
	<g>
		<polygon class="st0" points="35.901,38.952 14.1,38.952 14.1,21.543 16.571,21.543 16.571,36.481 33.43,36.481 33.43,21.543 
			35.901,21.543 		"/>
	</g>
	<g>
		<polygon class="st0" points="38.973,27.652 25,13.68 11.028,27.652 8.698,25.322 25,9.02 41.303,25.322 		"/>
	</g>
	<g>
		<path class="st0" d="M28.43,34.653h-6.549v-8.662h6.549V34.653z M23.373,33.162h3.566v-5.679h-3.566V33.162z"/>
	</g>
	<path class="st1" d="M35.901,32.083c-0.802-0.383-1.625-0.725-2.471-1.022v5.42H16.571v-5.306c-0.847,0.31-1.671,0.662-2.471,1.058
		v6.719h21.802V32.083z"/>
	<path class="st1" d="M3.295,25C3.295,13.032,13.032,3.295,25,3.295V0C11.215,0,0,11.215,0,25c0,13.785,11.215,25,25,25v-3.295
		C13.032,46.705,3.295,36.968,3.295,25z"/>
	<polygon class="st1" points="25,13.68 38.973,27.652 41.303,25.322 25,9.02 	"/>
	<path class="st1" d="M28.43,30.077c-0.493-0.072-0.988-0.134-1.491-0.173v3.258h-3.566v-3.258
		c-0.503,0.039-0.998,0.102-1.491,0.173v4.576h6.549V30.077z"/>
</g>
</svg>