<!-- Generator: Adobe Illustrator 20.1.0, SVG Export Plug-In  -->
<svg version="1.1"
	 xmlns="http://www.w3.org/2000/svg" xmlns:xlink="http://www.w3.org/1999/xlink" xmlns:a="http://ns.adobe.com/AdobeSVGViewerExtensions/3.0/"
	 x="0px" y="0px" width="35.001px" height="35px" viewBox="0 0 35.001 35" style="enable-background:new 0 0 35.001 35;"
	 xml:space="preserve">
<style type="text/css">
	.st0{fill:#FFFFFF;}
	.st1{fill:#90C4E9;}
</style>
<defs>
</defs>
<g>
	<path class="st0" d="M17.5,35C7.85,35,0,27.15,0,17.5C0,7.85,7.85,0,17.5,0s17.5,7.85,17.5,17.5C35.001,27.15,27.15,35,17.5,35z
		 M17.5,2.307C9.123,2.307,2.307,9.122,2.307,17.5S9.123,32.693,17.5,32.693S32.694,25.877,32.694,17.5S25.878,2.307,17.5,2.307z"/>
</g>
<g>
	<path class="st0" d="M24.042,27.044H10.984V7.956h13.057V27.044z M12.483,25.544h10.059V9.455H12.483V25.544z"/>
</g>
<g>
	<path class="st1" d="M17.513,25.157c-0.769,0-1.394-0.625-1.394-1.394s0.625-1.394,1.394-1.394s1.394,0.626,1.394,1.394
		S18.282,25.157,17.513,25.157z M17.513,23.522c-0.132,0-0.24,0.108-0.24,0.241c0,0.265,0.481,0.265,0.481,0
		C17.754,23.63,17.645,23.522,17.513,23.522z"/>
</g>
<g>
	<path class="st0" d="M21.686,21.6H13.42V10.259h8.266V21.6z M14.573,20.446h5.959v-9.034h-5.959V20.446z"/>
</g>
<g>
	<rect x="25.53" y="10.326" class="st0" width="1.153" height="4.904"/>
</g>
<g>
	<rect x="8.259" y="19.867" class="st0" width="1.153" height="4.904"/>
</g>
<g>
	<rect x="27.357" y="10.326" class="st0" width="1.153" height="2.98"/>
</g>
<g>
	<rect x="6.394" y="21.792" class="st0" width="1.153" height="2.979"/>
</g>
<path class="st1" d="M17.5,0C10.54,0,4.534,4.094,1.717,9.991c0.48,0.751,1.009,1.466,1.588,2.139
	c2.176-5.731,7.71-9.823,14.195-9.823s12.019,4.092,14.195,9.823c0.579-0.673,1.108-1.387,1.588-2.139C30.466,4.094,24.46,0,17.5,0z
	"/>
<path class="st1" d="M20.533,18.392v2.054h-5.959v-2.038c-0.388-0.061-0.774-0.123-1.153-0.208V21.6h8.266v-3.426
	C21.306,18.26,20.921,18.329,20.533,18.392z"/>
<path class="st1" d="M10.984,17.471c0.491,0.183,0.99,0.347,1.499,0.488V9.455h10.059v8.498c0.51-0.142,1.008-0.308,1.499-0.491
	V7.956H10.984V17.471z"/>
</svg>